<svg width="24" height="24" viewBox="0 0 24 24" fill="none" xmlns="http://www.w3.org/2000/svg">
<path d="M7.18877 9.3376C8.22764 9.33615 9.22355 8.92282 9.95814 8.18822C10.6927 7.45363 11.1061 6.45772 11.1075 5.41885C10.8911 0.220295 3.48564 0.221815 3.27002 5.41888C3.27148 6.45775 3.68481 7.45365 4.41941 8.18824C5.154 8.92282 6.1499 9.33615 7.18877 9.3376ZM7.18877 5.79387C5.38321 5.79667 5.03007 3.72137 6.8138 3.36009L6.81377 3.05635C6.81377 2.95689 6.85328 2.86151 6.9236 2.79118C6.99393 2.72086 7.08931 2.68135 7.18877 2.68135C7.28823 2.68135 7.38361 2.72086 7.45393 2.79118C7.52426 2.86151 7.56377 2.95689 7.56377 3.05635V3.3601C7.87043 3.38904 8.15704 3.52527 8.37313 3.74478C8.58921 3.9643 8.72091 4.25302 8.74502 4.5601C8.74502 4.65956 8.70551 4.75494 8.63518 4.82526C8.56486 4.89559 8.46948 4.9351 8.37002 4.9351C8.27056 4.9351 8.17518 4.89559 8.10485 4.82526C8.03453 4.75494 7.99502 4.65956 7.99502 4.5601C7.99502 4.3276 7.66502 4.0726 7.18877 4.0726C6.13337 4.1006 6.12957 5.01583 7.18879 5.04385C8.06254 5.04385 8.74504 5.58758 8.74504 6.2776C8.72093 6.58468 8.58924 6.8734 8.37315 7.09292C8.15707 7.31243 7.87045 7.44866 7.56379 7.4776V7.78135C7.56379 7.88081 7.52428 7.97619 7.45396 8.04652C7.38363 8.11684 7.28825 8.15635 7.18879 8.15635C7.08934 8.15635 6.99395 8.11684 6.92363 8.04652C6.8533 7.97619 6.81379 7.88081 6.81379 7.78135V7.4776C6.50735 7.44807 6.22107 7.31165 6.00511 7.09225C5.78914 6.87286 5.65725 6.58447 5.63254 6.2776C5.63254 6.17814 5.67205 6.08276 5.74238 6.01243C5.8127 5.94211 5.90809 5.9026 6.00754 5.9026C6.107 5.9026 6.20238 5.94211 6.27271 6.01243C6.34303 6.08276 6.38254 6.17814 6.38254 6.2776C6.38254 6.50635 6.71629 6.7651 7.18879 6.7651C8.24541 6.73536 8.24817 5.82111 7.18877 5.79387Z" fill="#00B047"/>
<path d="M3.88956 13.9944L3.48197 14.194C3.39434 14.2387 3.3278 14.3161 3.29667 14.4094C3.26555 14.5027 3.27233 14.6045 3.31556 14.6929C3.35879 14.7813 3.43501 14.8491 3.52779 14.8818C3.62058 14.9145 3.72249 14.9095 3.81159 14.8678C8.8245 12.487 13.2937 9.09976 16.9409 4.91704V5.41846C16.9409 5.51791 16.9805 5.6133 17.0508 5.68362C17.1211 5.75395 17.2165 5.79346 17.3159 5.79346C17.4154 5.79346 17.5108 5.75395 17.5811 5.68362C17.6514 5.6133 17.6909 5.51791 17.6909 5.41846V3.89941C17.6868 3.80128 17.646 3.70828 17.5765 3.63882C17.5071 3.56937 17.4141 3.52854 17.3159 3.52441H15.7973C15.699 3.52623 15.6054 3.56654 15.5366 3.63667C15.4677 3.7068 15.4291 3.80115 15.4291 3.89942C15.4291 3.9977 15.4677 4.09205 15.5366 4.16217C15.6054 4.2323 15.699 4.2726 15.7973 4.27441H16.5034C13.0006 8.33544 8.7092 11.6423 3.88956 13.9944Z" fill="#00B047"/>
<path d="M21.8738 21.7498H20.73V8.45606C20.7297 8.35669 20.6901 8.26148 20.6199 8.19122C20.5496 8.12096 20.4544 8.08135 20.355 8.08106H17.3175C17.2682 8.08089 17.2194 8.09047 17.1738 8.10925C17.1282 8.12804 17.0868 8.15566 17.052 8.19051C17.0171 8.22537 16.9895 8.26677 16.9707 8.31235C16.9519 8.35792 16.9423 8.40676 16.9425 8.45606V21.7498H16.17V11.4936C16.1702 11.4443 16.1606 11.3954 16.1418 11.3498C16.123 11.3043 16.0954 11.2629 16.0606 11.228C16.0257 11.1932 15.9843 11.1655 15.9387 11.1468C15.8932 11.128 15.8443 11.1184 15.795 11.1186H12.7613C12.712 11.1184 12.6631 11.128 12.6176 11.1468C12.572 11.1655 12.5306 11.1931 12.4957 11.228C12.4609 11.2629 12.4332 11.3043 12.4145 11.3498C12.3957 11.3954 12.3861 11.4443 12.3863 11.4936V21.7498H11.6138V14.5311C11.6139 14.4818 11.6044 14.4329 11.5856 14.3873C11.5668 14.3418 11.5392 14.3004 11.5043 14.2655C11.4695 14.2306 11.4281 14.203 11.3825 14.1842C11.3369 14.1655 11.2881 14.1559 11.2388 14.1561H8.20502C8.15573 14.1559 8.10689 14.1655 8.06131 14.1843C8.01574 14.203 7.97433 14.2307 7.93948 14.2655C7.90462 14.3004 7.877 14.3418 7.85822 14.3873C7.83943 14.4329 7.82985 14.4818 7.83002 14.5311V21.7498H7.05752V17.5686C7.05769 17.5193 7.04811 17.4704 7.02932 17.4248C7.01054 17.3793 6.98292 17.3379 6.94807 17.303C6.91321 17.2682 6.8718 17.2405 6.82623 17.2218C6.78066 17.203 6.73181 17.1934 6.68252 17.1936H3.64502C3.54566 17.1939 3.45045 17.2335 3.38018 17.3037C3.30992 17.374 3.27032 17.4692 3.27002 17.5686V21.7498H2.12627C2.0279 21.7515 1.93412 21.7917 1.86514 21.8618C1.79616 21.932 1.7575 22.0264 1.75751 22.1248C1.75751 22.2232 1.79617 22.3176 1.86516 22.3878C1.93414 22.4579 2.02793 22.4982 2.1263 22.4998H21.8738C21.9722 22.4983 22.0661 22.4581 22.1352 22.3879C22.2043 22.3178 22.243 22.2233 22.243 22.1248C22.243 22.0263 22.2043 21.9318 22.1352 21.8617C22.0661 21.7915 21.9722 21.7513 21.8738 21.7498Z" fill="#00B047"/>
</svg>
