<svg width="24" height="24" viewBox="0 0 24 24" fill="none" xmlns="http://www.w3.org/2000/svg">
<path d="M20.913 10.3112L18.189 4.86417C18.0652 4.61433 17.8738 4.40421 17.6366 4.25767C17.3994 4.11113 17.1258 4.03404 16.847 4.03517H8.08297C7.80431 4.03423 7.53096 4.1114 7.29394 4.25793C7.05691 4.40446 6.86569 4.61448 6.74197 4.86417L4.01797 10.3112C3.98312 10.3807 3.96497 10.4574 3.96497 10.5352V19.5352C3.96497 19.933 4.123 20.3145 4.40431 20.5958C4.68561 20.8771 5.06714 21.0352 5.46497 21.0352H19.465C19.8628 21.0352 20.2443 20.8771 20.5256 20.5958C20.8069 20.3145 20.965 19.933 20.965 19.5352V10.5352C20.965 10.4575 20.9472 10.3809 20.913 10.3112ZM7.96497 20.0352H5.46497C5.33236 20.0352 5.20518 19.9825 5.11141 19.8887C5.01764 19.795 4.96497 19.6678 4.96497 19.5352V13.2542C5.29627 13.5569 5.69194 13.7806 6.1222 13.9083C6.55246 14.036 7.00608 14.0645 7.44892 13.9915C7.89176 13.9185 8.31227 13.7461 8.6788 13.487C9.04533 13.228 9.34832 12.8892 9.56497 12.4962C9.83016 12.8836 10.1702 13.2141 10.565 13.4682C9.79004 13.8291 9.13396 14.4033 8.67351 15.1236C8.21306 15.8438 7.96729 16.6803 7.96497 17.5352V20.0352ZM9.96497 10.5352C9.96497 9.87213 10.2284 9.23624 10.6972 8.7674C11.166 8.29856 11.8019 8.03517 12.465 8.03517C13.128 8.03517 13.7639 8.29856 14.2327 8.7674C14.7016 9.23624 14.965 9.87213 14.965 10.5352C14.965 13.8342 9.96497 13.8472 9.96497 10.5352ZM15.965 20.0352H8.96497V17.5352C8.96497 16.6069 9.33372 15.7167 9.99009 15.0603C10.6465 14.4039 11.5367 14.0352 12.465 14.0352C13.3932 14.0352 14.2835 14.4039 14.9398 15.0603C15.5962 15.7167 15.965 16.6069 15.965 17.5352V20.0352ZM19.965 19.5352C19.965 19.6678 19.9123 19.795 19.8185 19.8887C19.7248 19.9825 19.5976 20.0352 19.465 20.0352H16.965V17.5352C16.9626 16.6803 16.7169 15.8438 16.2564 15.1236C15.796 14.4033 15.1399 13.8291 14.365 13.4682C14.7599 13.2143 15.1 12.8838 15.365 12.4962C15.5811 12.8898 15.8838 13.2292 16.2503 13.4887C16.6168 13.7482 17.0375 13.9209 17.4806 13.9939C17.9237 14.067 18.3776 14.0383 18.808 13.9101C19.2384 13.782 19.634 13.5577 19.965 13.2542V19.5352ZM19.965 11.0352C19.965 11.5656 19.7543 12.0743 19.3792 12.4494C19.0041 12.8245 18.4954 13.0352 17.965 13.0352C17.4345 13.0352 16.9258 12.8245 16.5508 12.4494C16.1757 12.0743 15.965 11.5656 15.965 11.0352V10.5352C15.965 9.60691 15.5962 8.71667 14.9398 8.0603C14.2835 7.40392 13.3932 7.03517 12.465 7.03517C11.5367 7.03517 10.6465 7.40392 9.99009 8.0603C9.33372 8.71667 8.96497 9.60691 8.96497 10.5352V11.0352C8.96497 11.5656 8.75425 12.0743 8.37918 12.4494C8.00411 12.8245 7.4954 13.0352 6.96497 13.0352C6.43453 13.0352 5.92583 12.8245 5.55075 12.4494C5.17568 12.0743 4.96497 11.5656 4.96497 11.0352V10.6532L7.63597 5.31117C7.67753 5.22822 7.74135 5.15848 7.8203 5.10973C7.89924 5.06099 7.99019 5.03517 8.08297 5.03517H16.847C16.9397 5.03517 17.0307 5.06099 17.1096 5.10973C17.1886 5.15848 17.2524 5.22822 17.294 5.31117L19.965 10.6532V11.0352Z" fill="#DF5800"/>
</svg>
