<svg width="24" height="24" viewBox="0 0 24 24" fill="none" xmlns="http://www.w3.org/2000/svg">
<g clip-path="url(#clip0_253_16497)">
<path d="M20.5355 12.8115H18.6794C18.8686 13.3295 18.972 13.8885 18.972 14.4711V21.4859C18.972 21.7289 18.9297 21.962 18.8528 22.1789H21.9213C23.0675 22.1789 24 21.2463 24 20.1001V16.276C24 14.3657 22.4459 12.8115 20.5355 12.8115Z" fill="#F27405"/>
<path d="M5.02806 14.4711C5.02806 13.8884 5.13142 13.3295 5.3206 12.8115H3.46454C1.55419 12.8115 0 14.3657 0 16.2761V20.1002C0 21.2464 0.932486 22.1789 2.07872 22.1789H5.14726C5.07034 21.962 5.02806 21.7289 5.02806 21.4859V14.4711Z" fill="#F27405"/>
<path d="M14.1216 11.0068H9.87836C7.96801 11.0068 6.41382 12.561 6.41382 14.4714V21.4862C6.41382 21.8689 6.72404 22.1791 7.10673 22.1791H16.8932C17.2759 22.1791 17.5861 21.8689 17.5861 21.4862V14.4714C17.5861 12.561 16.0319 11.0068 14.1216 11.0068Z" fill="#F27405"/>
<path d="M12 1.82031C9.70259 1.82031 7.8335 3.68941 7.8335 5.9869C7.8335 7.54526 8.69361 8.90628 9.96383 9.62084C10.5663 9.95975 11.2609 10.1534 12 10.1534C12.7392 10.1534 13.4338 9.95975 14.0362 9.62084C15.3065 8.90628 16.1666 7.54521 16.1666 5.9869C16.1666 3.68946 14.2975 1.82031 12 1.82031Z" fill="#F27405"/>
<path d="M4.68365 5.7041C2.96544 5.7041 1.56763 7.10192 1.56763 8.82012C1.56763 10.5383 2.96544 11.9361 4.68365 11.9361C5.11949 11.9361 5.53453 11.8459 5.91154 11.6836C6.56339 11.4029 7.10086 10.9062 7.43344 10.2839C7.66687 9.84716 7.79967 9.34892 7.79967 8.82012C7.79967 7.10196 6.40185 5.7041 4.68365 5.7041Z" fill="#F27405"/>
<path d="M19.3163 5.7041C17.5981 5.7041 16.2003 7.10192 16.2003 8.82012C16.2003 9.34897 16.3331 9.8472 16.5666 10.2839C16.8991 10.9062 17.4366 11.403 18.0884 11.6836C18.4655 11.8459 18.8805 11.9361 19.3163 11.9361C21.0345 11.9361 22.4324 10.5383 22.4324 8.82012C22.4324 7.10192 21.0345 5.7041 19.3163 5.7041Z" fill="#F27405"/>
</g>
<defs>
<clipPath id="clip0_253_16497">
<rect width="24" height="24" fill="white"/>
</clipPath>
</defs>
</svg>
